<svg width="24" height="13" viewBox="0 0 24 13" fill="none" xmlns="http://www.w3.org/2000/svg">
<path fill-rule="evenodd" clip-rule="evenodd" d="M7.40374 0.903636C8.70188 0.365928 10.083 0.0606899 11.4842 0.000462601C11.7689 -0.0117745 12 0.220381 12 0.505333V5.47874C12 5.76369 11.7686 5.99239 11.4847 6.01684C10.8726 6.06955 10.2713 6.21596 9.70187 6.45182C8.97327 6.75361 8.31125 7.19596 7.7536 7.75361C7.19596 8.31125 6.75361 8.97327 6.45182 9.70187C6.21596 10.2713 6.06955 10.8726 6.01684 11.4847C5.99239 11.7686 5.76369 12 5.47874 12H0.505333C0.220381 12 -0.0117745 11.7689 0.000462596 11.4842C0.0606896 10.083 0.365927 8.70188 0.903636 7.40374C1.50723 5.94654 2.39192 4.6225 3.50721 3.50721C4.6225 2.39192 5.94654 1.50723 7.40374 0.903636ZM16.5963 11.1648C15.2981 11.7026 13.917 12.0078 12.5158 12.068C12.2311 12.0803 12 11.8481 12 11.5632V6.58975C12 6.30479 12.2314 6.0761 12.5153 6.05164C13.1274 5.99893 13.7287 5.85253 14.2981 5.61667C15.0267 5.31487 15.6888 4.87253 16.2464 4.31488C16.804 3.75724 17.2464 3.09522 17.5482 2.36662C17.784 1.7972 17.9305 1.19584 17.9832 0.583806C18.0076 0.299905 18.2363 0.0684857 18.5213 0.0684856L23.4947 0.0684849C23.7796 0.0684849 24.0118 0.2996 23.9995 0.584289C23.9393 1.98544 23.6341 3.36661 23.0964 4.66475C22.4928 6.12194 21.6081 7.44599 20.4928 8.56127C19.3775 9.67656 18.0535 10.5613 16.5963 11.1648Z" fill="url(#paint0_linear_4010_129)"/>
<defs>
<linearGradient id="paint0_linear_4010_129" x1="-0.0121678" y1="-0.0121686" x2="24.0134" y2="12.0781" gradientUnits="userSpaceOnUse">
<stop stop-color="#999999"/>
<stop offset="1" stop-color="#111111"/>
</linearGradient>
</defs>
</svg>
