<svg width="18" height="18" viewBox="0 0 18 18" fill="none" xmlns="http://www.w3.org/2000/svg">
<path fill-rule="evenodd" clip-rule="evenodd" d="M2.25 3.75C2.25 3.33579 2.58579 3 3 3H8.25C8.66421 3 9 3.33579 9 3.75C9 4.16421 8.66421 4.5 8.25 4.5H6.375V13.5H8.25C8.66421 13.5 9 13.8358 9 14.25C9 14.6642 8.66421 15 8.25 15H3C2.58579 15 2.25 14.6642 2.25 14.25C2.25 13.8358 2.58579 13.5 3 13.5H4.875V4.5H3C2.58579 4.5 2.25 4.16421 2.25 3.75Z" fill="#111111"/>
<path d="M11.5105 6.38496C11.635 5.87168 12.365 5.87168 12.4895 6.38496L12.8319 7.79729C12.8764 7.98055 13.0195 8.12363 13.2027 8.16807L14.615 8.51053C15.1283 8.635 15.1283 9.365 14.615 9.48946L13.2027 9.83193C13.0195 9.87637 12.8764 10.0195 12.8319 10.2027L12.4895 11.615C12.365 12.1283 11.635 12.1283 11.5105 11.615L11.1681 10.2027C11.1236 10.0195 10.9805 9.87637 10.7973 9.83193L9.38496 9.48946C8.87168 9.365 8.87168 8.635 9.38496 8.51053L10.7973 8.16807C10.9805 8.12363 11.1236 7.98055 11.1681 7.79729L11.5105 6.38496Z" fill="#111111"/>
<path fill-rule="evenodd" clip-rule="evenodd" d="M12 6.93109L11.7554 7.93971C11.6577 8.34288 11.3429 8.65766 10.9397 8.75542L9.93109 9L10.9397 9.24458C11.3429 9.34234 11.6577 9.65712 11.7554 10.0603L12 11.0689L12.2446 10.0603C12.3423 9.65712 12.6571 9.34234 13.0603 9.24458L14.0689 9L13.0603 8.75542C12.6571 8.65766 12.3423 8.34288 12.2446 7.93971L12 6.93109ZM12.4895 6.38496C12.365 5.87168 11.635 5.87168 11.5105 6.38496L11.1681 7.79729C11.1236 7.98055 10.9805 8.12363 10.7973 8.16807L9.38496 8.51053C8.87168 8.635 8.87168 9.365 9.38496 9.48946L10.7973 9.83193C10.9805 9.87637 11.1236 10.0195 11.1681 10.2027L11.5105 11.615C11.635 12.1283 12.365 12.1283 12.4895 11.615L12.8319 10.2027C12.8764 10.0195 13.0195 9.87637 13.2027 9.83193L14.615 9.48946C15.1283 9.365 15.1283 8.635 14.615 8.51053L13.2027 8.16807C13.0195 8.12363 12.8764 7.98055 12.8319 7.79729L12.4895 6.38496Z" fill="#111111"/>
<path d="M15.75 3.75C15.75 4.16421 15.4142 4.5 15 4.5C14.5858 4.5 14.25 4.16421 14.25 3.75C14.25 3.33579 14.5858 3 15 3C15.4142 3 15.75 3.33579 15.75 3.75Z" fill="#111111"/>
<path d="M15.75 14.25C15.75 14.6642 15.4142 15 15 15C14.5858 15 14.25 14.6642 14.25 14.25C14.25 13.8358 14.5858 13.5 15 13.5C15.4142 13.5 15.75 13.8358 15.75 14.25Z" fill="#111111"/>
</svg>
