<svg width="24" height="24" viewBox="0 0 24 24" fill="none" xmlns="http://www.w3.org/2000/svg">
<path d="M12 5C13.4464 5 14.7842 5.28138 16.0134 5.84414C17.2426 6.4069 18.2143 7.17215 18.9286 8.13986C19.6429 9.10754 20 10.1631 20 11.3065C20 12.4499 19.6429 13.5069 18.9286 14.4776C18.2143 15.4483 17.244 16.215 16.0178 16.7778C14.7917 17.3405 13.4524 17.6219 12 17.6219C11.5417 17.6219 11.0684 17.5892 10.5804 17.5237C8.46129 18.9946 7.33334 19.739 7.19644 19.7568C7.13095 19.7807 7.06844 19.7777 7.00892 19.7479C6.98511 19.7301 6.96726 19.7062 6.95535 19.6764C6.94344 19.6467 6.9375 19.6199 6.9375 19.5961V19.5603C6.97323 19.3281 7.24404 18.3604 7.75 16.6572C6.60119 16.0855 5.68899 15.3277 5.01339 14.3838C4.3378 13.4399 4 12.4142 4 11.3065C4 10.1631 4.35714 9.10754 5.07143 8.13986C5.78572 7.17215 6.75744 6.4069 7.98661 5.84414C9.21577 5.28138 10.5536 5 12 5Z" fill="black"/>
</svg>
