<svg width="34" height="17" viewBox="0 0 34 17" fill="none" xmlns="http://www.w3.org/2000/svg">
<path fill-rule="evenodd" clip-rule="evenodd" d="M10.4292 1.2729C12.2578 0.51546 14.2034 0.08549 16.1771 0.000651636C16.5781 -0.016586 16.9037 0.310438 16.9037 0.711832V7.71756C16.9037 8.11895 16.5777 8.4411 16.1778 8.47555C15.3156 8.5498 14.4685 8.75603 13.6664 9.08827C12.6401 9.51339 11.7075 10.1365 10.922 10.922C10.1365 11.7075 9.51339 12.6401 9.08827 13.6664C8.75603 14.4685 8.5498 15.3156 8.47555 16.1778C8.4411 16.5777 8.11895 16.9037 7.71756 16.9037L0.711832 16.9037C0.310438 16.9037 -0.016586 16.5781 0.000651633 16.1771C0.0854898 14.2034 0.515459 12.2578 1.27289 10.4292C2.12313 8.37652 3.36935 6.51143 4.94039 4.94039C6.51143 3.36935 8.37652 2.12314 10.4292 1.2729ZM23.3785 15.7274C21.5499 16.4848 19.6043 16.9148 17.6306 16.9996C17.2296 17.0169 16.904 16.6899 16.904 16.2885V9.28274C16.904 8.88134 17.23 8.55919 17.6299 8.52475C18.492 8.45049 19.3391 8.24426 20.1412 7.91202C21.1676 7.4869 22.1001 6.86379 22.8856 6.07828C23.6712 5.29276 24.2943 4.36021 24.7194 3.33388C25.0516 2.53178 25.2578 1.68467 25.3321 0.822544C25.3665 0.42263 25.6887 0.0966438 26.0901 0.0966437L33.0958 0.0966427C33.4972 0.0966426 33.8242 0.4222 33.807 0.823224C33.7222 2.79694 33.2922 4.7425 32.5348 6.57111C31.6845 8.62377 30.4383 10.4889 28.8673 12.0599C27.2962 13.6309 25.4311 14.8772 23.3785 15.7274Z" fill="url(#paint0_linear_4003_62)"/>
<defs>
<linearGradient id="paint0_linear_4003_62" x1="-0.0171402" y1="-0.0171414" x2="33.8266" y2="17.0138" gradientUnits="userSpaceOnUse">
<stop stop-color="#999999"/>
<stop offset="1" stop-color="#111111"/>
</linearGradient>
</defs>
</svg>
